<svg xmlns="http://www.w3.org/2000/svg" xmlns:xlink="http://www.w3.org/1999/xlink" width="36.428" height="37.859" viewBox="0 0 36.428 37.859"><defs><linearGradient id="a" x1="0.5" y1="1" x2="0.5" gradientUnits="objectBoundingBox"><stop offset="0" stop-color="#03a9f4"/><stop offset="0.5" stop-color="#46b6a0"/><stop offset="1" stop-color="#8bc34a"/></linearGradient></defs><path d="M36.428,18.218A4.278,4.278,0,0,0,33.61,14.2V8.291a4.272,4.272,0,1,0-5.48-5.444H22.26a4.273,4.273,0,0,0-8.056,0H8.291A4.268,4.268,0,1,0,2.861,8.3v5.878a4.276,4.276,0,0,0,0,8.07v7.308A4.269,4.269,0,1,0,8.54,33.589h5.423a4.27,4.27,0,0,0,8.54,0h5.38A4.27,4.27,0,1,0,33.6,29.568V22.231A4.265,4.265,0,0,0,36.428,18.218ZM18.232,2.847a1.425,1.425,0,0,1,.093,2.847h-.185a1.425,1.425,0,0,1,.093-2.847ZM4.27,35.012a1.427,1.427,0,0,1-1.423-1.423,2.155,2.155,0,0,1,.014-.221A1.425,1.425,0,1,1,4.27,35.012Zm0-15.371a1.425,1.425,0,0,1-1.409-1.2,1.113,1.113,0,0,1-.014-.221A2.155,2.155,0,0,1,2.861,18,1.425,1.425,0,1,1,4.27,19.641Zm0-13.948a1.425,1.425,0,0,1-1.409-1.2,1.113,1.113,0,0,1-.014-.221c0-.071.007-.149.014-.221A1.425,1.425,0,1,1,4.27,5.693ZM18.232,35.012a1.423,1.423,0,1,1,1.423-1.423A1.427,1.427,0,0,1,18.232,35.012Zm10.739-4.27H21.42a4.266,4.266,0,0,0-6.362,0H7.451a4.257,4.257,0,0,0-1.743-1.174v-7.33a4.27,4.27,0,0,0,0-8.041V8.291a4.3,4.3,0,0,0,2.59-2.6H14.2a4.273,4.273,0,0,0,8.056,0h5.864a4.29,4.29,0,0,0,2.633,2.619v5.871a4.269,4.269,0,0,0,0,8.07v7.3A4.226,4.226,0,0,0,28.971,30.742Zm3.188,4.27a1.423,1.423,0,1,1,1.423-1.423A1.427,1.427,0,0,1,32.159,35.012Zm0-15.371A1.421,1.421,0,0,1,30.764,18.5a1.663,1.663,0,0,1-.028-.278,1.226,1.226,0,0,1,.028-.278,1.423,1.423,0,1,1,1.395,1.7Zm0-13.948A1.423,1.423,0,1,1,33.582,4.27,1.427,1.427,0,0,1,32.159,5.693Z" fill="url(#a)"/><g transform="translate(16.787 16.795)"><circle cx="1.423" cy="1.423" r="1.423" fill="#f44336"/></g></svg>